<?xml version="1.0" encoding="UTF-8" standalone="no"?>
<!-- Created with Inkscape (http://www.inkscape.org/) -->

<svg
   xmlns:dc="http://purl.org/dc/elements/1.1/"
   xmlns:cc="http://creativecommons.org/ns#"
   xmlns:rdf="http://www.w3.org/1999/02/22-rdf-syntax-ns#"
   xmlns:svg="http://www.w3.org/2000/svg"
   xmlns="http://www.w3.org/2000/svg"
   xmlns:sodipodi="http://sodipodi.sourceforge.net/DTD/sodipodi-0.dtd"
   xmlns:inkscape="http://www.inkscape.org/namespaces/inkscape"
   width="512"
   height="512"
   viewBox="0 0 511.99999 511.99999"
   id="svg2"
   version="1.1"
   inkscape:version="0.91 r13725"
   sodipodi:docname="spaceship3.svg"
   inkscape:export-filename="/home/nikulaj/projects/AndroidGame/android/assets/img/spaceship3.png"
   inkscape:export-xdpi="90"
   inkscape:export-ydpi="90">
  <defs
     id="defs4" />
  <sodipodi:namedview
     id="base"
     pagecolor="#ffffff"
     bordercolor="#666666"
     borderopacity="1.0"
     inkscape:pageopacity="0.0"
     inkscape:pageshadow="2"
     inkscape:zoom="0.98994949"
     inkscape:cx="461.1643"
     inkscape:cy="329.43113"
     inkscape:document-units="px"
     inkscape:current-layer="layer6"
     showgrid="false"
     showguides="false"
     inkscape:window-width="1916"
     inkscape:window-height="1035"
     inkscape:window-x="0"
     inkscape:window-y="20"
     inkscape:window-maximized="0"
     units="px">
    <inkscape:grid
       type="xygrid"
       id="grid4149" />
  </sodipodi:namedview>
  <metadata
     id="metadata7">
    <rdf:RDF>
      <cc:Work
         rdf:about="">
        <dc:format>image/svg+xml</dc:format>
        <dc:type
           rdf:resource="http://purl.org/dc/dcmitype/StillImage" />
        <dc:title></dc:title>
      </cc:Work>
    </rdf:RDF>
  </metadata>
  <g
     inkscape:groupmode="layer"
     id="layer3"
     inkscape:label="midsection"
     style="display:inline"
     transform="translate(0,-540.36219)">
    <path
       style="display:inline;fill:#d6d6d6;fill-opacity:1;fill-rule:evenodd;stroke:#000000;stroke-width:0.97196597px;stroke-linecap:butt;stroke-linejoin:miter;stroke-opacity:1"
       d="m 238.61764,759.91305 -9.71966,-111.77609 -9.71966,-9.71965 -58.31795,0 -19.43932,29.15897 -9.71966,77.75728 0,102.05727 9.71966,77.75728 19.43932,29.15897 58.31795,0 9.71966,-9.71965 9.71966,-112.12322 19.43932,-8.4e-4 0,-72.55032 z"
       id="path4187-3"
       inkscape:connector-curvature="0"
       sodipodi:nodetypes="ccccccccccccccc" />
  </g>
  <g
     inkscape:groupmode="layer"
     id="layer5"
     inkscape:label="front hull 2"
     style="display:inline"
     transform="translate(0,-540.36219)">
    <path
       id="path4185-9"
       style="display:inline;fill:#758b7c;fill-opacity:1;fill-rule:evenodd;stroke:#000000;stroke-width:0.97196597px;stroke-linecap:butt;stroke-linejoin:miter;stroke-opacity:1"
       d="m 258.05696,827.95151 0,29.15898 9.71966,9.71966 63.94268,-1.09043 c 0,0 90.32871,-0.98183 124.6929,-6.87284 34.36418,-5.89101 54.6693,-36.54244 54.6693,-36.54244 z m 0,-63.17863 0,-29.15898 9.71966,-9.71966 63.94268,1.09043 c 0,0 90.32871,0.98183 124.6929,6.87284 34.36418,5.89101 54.6693,36.54244 54.6693,36.54244 z"
       inkscape:connector-curvature="0" />
  </g>
  <g
     inkscape:groupmode="layer"
     id="layer2"
     inkscape:label="front hull"
     style="display:inline"
     transform="translate(0,-540.36219)">
    <path
       style="fill:#9ebca7;fill-opacity:1;fill-rule:evenodd;stroke:#000000;stroke-width:0.97196597px;stroke-linecap:butt;stroke-linejoin:miter;stroke-opacity:1"
       d="m 131.70139,788.8759 c 41.13669,-1.03076 42.01819,2.65154 126.35557,-24.10302 204.11285,-19.43932 253.02454,5.62707 253.02454,5.62707 l 0,51.92449 c 0,0 -48.91169,25.06639 -253.02454,5.62707 -84.33738,-26.75456 -85.21888,-23.07226 -126.35557,-24.10302 z"
       id="path4201"
       inkscape:connector-curvature="0"
       sodipodi:nodetypes="ccccccc" />
  </g>
  <g
     inkscape:groupmode="layer"
     id="layer4"
     inkscape:label="Engines"
     style="display:inline"
     transform="translate(0,-540.36219)">
    <path
       id="path4157-6"
       style="display:inline;fill:#4f4f4f;fill-opacity:1;fill-rule:evenodd;stroke:#000000;stroke-width:0.97196597px;stroke-linecap:butt;stroke-linejoin:miter;stroke-opacity:1"
       d="m 131.70139,847.39083 -38.878637,19.43932 -68.037621,9.71965 -9.71966,-9.71965 0,-38.87865 116.635918,0 z m 0,-102.05727 -38.878637,-19.43933 -68.037621,-9.71966 -9.71966,9.71966 0,38.87864 116.635918,0 z"
       inkscape:connector-curvature="0" />
    <path
       style="display:inline;fill:#818181;fill-opacity:1;fill-rule:evenodd;stroke:#000000;stroke-width:0.97196597px;stroke-linecap:butt;stroke-linejoin:miter;stroke-opacity:1"
       d="m 0.48598282,818.23185 9.71966018,4.85983 121.495747,0 0,-53.45897 -121.495747,0 -9.71966018,4.85983 c 0,14.57977 0,29.15954 0,43.73931 z"
       id="path4159-9"
       inkscape:connector-curvature="0"
       sodipodi:nodetypes="ccccccc" />
  </g>
  <g
     inkscape:groupmode="layer"
     id="layer6"
     inkscape:label="stripes"
     style="display:inline"
     transform="translate(0,-540.36219)">
    <path
       style="display:inline;fill:#004481;fill-opacity:1;fill-rule:evenodd;stroke:none;stroke-width:1px;stroke-linecap:butt;stroke-linejoin:miter;stroke-opacity:1"
       d="m 228.50401,944.70634 -73.71843,0 6.24835,9.25277 58.31796,0 z"
       id="path4248"
       inkscape:connector-curvature="0"
       sodipodi:nodetypes="ccccc" />
    <path
       style="display:inline;fill:#004481;fill-opacity:1;fill-rule:evenodd;stroke:none;stroke-width:1px;stroke-linecap:butt;stroke-linejoin:miter;stroke-opacity:1"
       d="m 228.13583,647.94704 -73.14663,0 6.01372,-9.45015 58.17366,0.3682 z"
       id="path4250"
       inkscape:connector-curvature="0"
       sodipodi:nodetypes="ccccc" />
    <path
       id="path4259"
       style="display:inline;fill:#004481;fill-opacity:1;fill-rule:evenodd;stroke:none;stroke-width:1px;stroke-linecap:butt;stroke-linejoin:miter;stroke-opacity:1"
       d="m 444.11901,732.70668 -7.04041,25.23378 -5.45629,-0.19699 7.06055,-25.65607 z m -89.21259,-4.85983 -8.40028,30.22213 -15.03104,0.71589 8.66686,-31.26039 z"
       inkscape:connector-curvature="0"
       sodipodi:nodetypes="cccccccccc" />
    <path
       id="path4259-1"
       style="display:inline;fill:#004481;fill-opacity:1;fill-rule:evenodd;stroke:none;stroke-width:1px;stroke-linecap:butt;stroke-linejoin:miter;stroke-opacity:1"
       d="m 444.11901,860.17094 -7.04041,-25.23378 -5.45629,0.19699 7.06055,25.65606 z m -89.21259,4.85983 -8.40028,-30.22213 -15.03104,-0.71589 8.66686,31.26039 z"
       inkscape:connector-curvature="0"
       sodipodi:nodetypes="cccccccccc" />
    <path
       id="path4280"
       style="display:inline;fill:#005fb3;fill-opacity:1;fill-rule:evenodd;stroke:none;stroke-width:1px;stroke-linecap:butt;stroke-linejoin:miter;stroke-opacity:1"
       d="m 346.05459,758.87166 0,74.98023 -14.40593,-0.69427 0,-73.50491 z m 90.90502,0.084 0,74.94708 -4.99017,0.1525 0,-75.3869 z"
       inkscape:connector-curvature="0"
       sodipodi:nodetypes="cccccccccc" />
  </g>
</svg>
