<?xml version="1.0" encoding="UTF-8" standalone="no"?>
<!-- Created with Inkscape (http://www.inkscape.org/) -->

<svg
   xmlns:dc="http://purl.org/dc/elements/1.1/"
   xmlns:cc="http://creativecommons.org/ns#"
   xmlns:rdf="http://www.w3.org/1999/02/22-rdf-syntax-ns#"
   xmlns:svg="http://www.w3.org/2000/svg"
   xmlns="http://www.w3.org/2000/svg"
   xmlns:sodipodi="http://sodipodi.sourceforge.net/DTD/sodipodi-0.dtd"
   xmlns:inkscape="http://www.inkscape.org/namespaces/inkscape"
   width="210mm"
   height="297mm"
   viewBox="0 0 744.09448819 1052.3622047"
   id="svg4152"
   version="1.1"
   inkscape:version="0.91 r13725"
   sodipodi:docname="spaceship.svg">
  <defs
     id="defs4154" />
  <sodipodi:namedview
     id="base"
     pagecolor="#ffffff"
     bordercolor="#666666"
     borderopacity="1.0"
     inkscape:pageopacity="0.0"
     inkscape:pageshadow="2"
     inkscape:zoom="2"
     inkscape:cx="328.11464"
     inkscape:cy="650.41016"
     inkscape:document-units="px"
     inkscape:current-layer="layer1"
     showgrid="false"
     showguides="true"
     inkscape:guide-bbox="true"
     inkscape:window-width="1280"
     inkscape:window-height="962"
     inkscape:window-x="-8"
     inkscape:window-y="-8"
     inkscape:window-maximized="1" />
  <metadata
     id="metadata4157">
    <rdf:RDF>
      <cc:Work
         rdf:about="">
        <dc:format>image/svg+xml</dc:format>
        <dc:type
           rdf:resource="http://purl.org/dc/dcmitype/StillImage" />
        <dc:title></dc:title>
      </cc:Work>
    </rdf:RDF>
  </metadata>
  <g
     inkscape:label="Layer 1"
     inkscape:groupmode="layer"
     id="layer1">
    <path
       id="path4742"
       style="fill:none;fill-rule:evenodd;stroke:#000000;stroke-width:1px;stroke-linecap:butt;stroke-linejoin:miter;stroke-opacity:1"
       d="m 269.5,438.36221 8,64.5 9,6.5 20.50368,0 2.12132,-13.5 m 19.375,-242.07143 -22.07143,0 -5.71428,11.42857 c 0,0 0.76724,92.88474 -29.45904,112.95867 l -23.70053,15.74004 -0.481,33.43384 c 0,0 36.53967,11.83368 47.92628,41.43888 5.35714,13.92857 2.62143,22.65383 9.65812,25.87664 7.03668,3.22282 23.84188,0.94318 23.84188,0.94318 z m 0,0 -22.07143,0 -5.71428,11.42857 c 0,0 0.76724,92.88474 -29.45904,112.95867 l -23.70053,15.74004 -0.481,33.43384 c 0,0 36.53967,11.83368 47.92628,41.43888 5.35714,13.92857 2.62143,22.65383 9.65812,25.87664 7.03668,3.22282 23.84188,0.94318 23.84188,0.94318 z"
       inkscape:connector-curvature="0"
       sodipodi:nodetypes="ccccccccsccsscccccsccsscc" />
    <path
       id="path4742-5"
       style="fill:none;fill-rule:evenodd;stroke:#000000;stroke-width:1px;stroke-linecap:butt;stroke-linejoin:miter;stroke-opacity:1"
       d="m 376.06846,438.36221 -8,64.5 -9,6.5 -20.50368,0 -2.12132,-13.5 m -19.375,-242.07143 22.07143,0 5.71428,11.42857 c 0,0 -0.76724,92.88474 29.45904,112.95867 l 23.70053,15.74004 0.481,33.43384 c 0,0 -36.53967,11.83368 -47.92628,41.43888 -5.35714,13.92857 -2.62143,22.65383 -9.65812,25.87664 -7.03668,3.22282 -23.84188,0.94318 -23.84188,0.94318 z m 0,0 22.07143,0 5.71428,11.42857 c 0,0 -0.76724,92.88474 29.45904,112.95867 l 23.70053,15.74004 0.481,33.43384 c 0,0 -36.53967,11.83368 -47.92628,41.43888 -5.35714,13.92857 -2.62143,22.65383 -9.65812,25.87664 -7.03668,3.22282 -23.84188,0.94318 -23.84188,0.94318 z"
       inkscape:connector-curvature="0"
       sodipodi:nodetypes="ccccccccsccsscccccsccsscc" />
  </g>
</svg>
