<?xml version="1.0" encoding="UTF-8" standalone="no"?>
<!-- Created with Inkscape (http://www.inkscape.org/) -->

<svg
   xmlns:dc="http://purl.org/dc/elements/1.1/"
   xmlns:cc="http://creativecommons.org/ns#"
   xmlns:rdf="http://www.w3.org/1999/02/22-rdf-syntax-ns#"
   xmlns:svg="http://www.w3.org/2000/svg"
   xmlns="http://www.w3.org/2000/svg"
   xmlns:sodipodi="http://sodipodi.sourceforge.net/DTD/sodipodi-0.dtd"
   xmlns:inkscape="http://www.inkscape.org/namespaces/inkscape"
   width="210mm"
   height="297mm"
   viewBox="0 0 744.09448819 1052.3622047"
   id="svg4152"
   version="1.1"
   inkscape:version="0.91 r13725"
   sodipodi:docname="spaceship_colored.svg"
   inkscape:export-filename="/home/nikulaj/projects/AndroidGame/android/assets/img/spaceship.png"
   inkscape:export-xdpi="90"
   inkscape:export-ydpi="90">
  <defs
     id="defs4154" />
  <sodipodi:namedview
     id="base"
     pagecolor="#ffffff"
     bordercolor="#666666"
     borderopacity="1.0"
     inkscape:pageopacity="0.0"
     inkscape:pageshadow="2"
     inkscape:zoom="2.8284271"
     inkscape:cx="273.56848"
     inkscape:cy="681.84581"
     inkscape:document-units="px"
     inkscape:current-layer="layer1"
     showgrid="false"
     showguides="true"
     inkscape:guide-bbox="true"
     inkscape:window-width="1916"
     inkscape:window-height="1035"
     inkscape:window-x="0"
     inkscape:window-y="20"
     inkscape:window-maximized="0" />
  <metadata
     id="metadata4157">
    <rdf:RDF>
      <cc:Work
         rdf:about="">
        <dc:format>image/svg+xml</dc:format>
        <dc:type
           rdf:resource="http://purl.org/dc/dcmitype/StillImage" />
        <dc:title></dc:title>
      </cc:Work>
    </rdf:RDF>
  </metadata>
  <g
     inkscape:label="Layer 1"
     inkscape:groupmode="layer"
     id="layer1"
     style="display:inline"
     sodipodi:insensitive="true">
    <path
       style="fill:none;fill-opacity:1;fill-rule:evenodd;stroke:#000000;stroke-width:1px;stroke-linecap:butt;stroke-linejoin:miter;stroke-opacity:1"
       d="m 317.06846,253.79078 22.07143,0 5.71428,11.42857 c 0,0 -0.76724,92.88474 29.45904,112.95867 l 23.70053,15.74004 0.481,33.43384 c 0,0 -36.53967,11.83368 -47.92628,41.43888 -5.35714,13.92857 -2.62143,22.65383 -9.65812,25.87664 -7.03668,3.22282 -23.84188,0.94318 -23.84188,0.94318 z"
       id="path4198"
       inkscape:connector-curvature="0" />
    <path
       style="fill:none;fill-opacity:1;fill-rule:evenodd;stroke:#000000;stroke-width:1px;stroke-linecap:butt;stroke-linejoin:miter;stroke-opacity:1"
       d="m 328.5,253.79078 -22.07143,0 -5.71428,11.42857 c 0,0 0.76724,92.88474 -29.45904,112.95867 l -23.70053,15.74004 -0.481,33.43384 c 0,0 36.53967,11.83368 47.92628,41.43888 5.35714,13.92857 2.62143,22.65383 9.65812,25.87664 7.03668,3.22282 23.84188,0.94318 23.84188,0.94318 z"
       id="path4192"
       inkscape:connector-curvature="0" />
    <path
       id="path4194"
       style="fill:#393939;fill-opacity:1;fill-rule:evenodd;stroke:#000000;stroke-width:1px;stroke-linecap:butt;stroke-linejoin:miter;stroke-opacity:1"
       d="m 336.44346,495.86221 2.12132,13.5 20.50368,0 9,-6.5 8,-64.5 -106.56846,0 8,64.5 9,6.5 20.50368,0 2.12132,-13.5 z"
       inkscape:connector-curvature="0"
       sodipodi:nodetypes="ccccccccccc" />
  </g>
  <g
     inkscape:groupmode="layer"
     id="layer2"
     inkscape:label="Layer 2"
     sodipodi:insensitive="true">
    <path
       style="fill:#d4d4d4;fill-opacity:1;fill-rule:evenodd;stroke:#000000;stroke-width:1px;stroke-linecap:butt;stroke-linejoin:miter;stroke-opacity:1"
       d="m 340.91034,494.66742 c 7.03669,-3.22281 4.30098,-11.94807 9.65812,-25.87664 11.38661,-29.6052 47.92628,-41.43888 47.92628,-41.43888 l -0.481,-33.43384 -23.70053,-15.74004 C 344.08693,358.10409 344.85417,265.21935 344.85417,265.21935 l -5.71428,-11.42857 -32.71132,0 -5.71428,11.42857 c 0,0 0.76724,92.88474 -29.45904,112.95867 l -23.70053,15.74004 -0.481,33.43384 c 0,0 36.53967,11.83368 47.92628,41.43888 5.35714,13.92857 2.62143,22.65383 9.65812,25.87664 z"
       id="path4210"
       inkscape:connector-curvature="0" />
    <path
       style="fill:#e47d23;fill-opacity:1;fill-rule:evenodd;stroke:#000000;stroke-width:1px;stroke-linecap:butt;stroke-linejoin:miter;stroke-opacity:1"
       d="m 317.06846,495.6106 0,-241.81982 11.43154,0 0,241.81982 z"
       id="path4742-5"
       inkscape:connector-curvature="0" />
  </g>
</svg>
