<?xml version="1.0" encoding="UTF-8" standalone="no"?>
<!-- Created with Inkscape (http://www.inkscape.org/) -->

<svg
   xmlns:dc="http://purl.org/dc/elements/1.1/"
   xmlns:cc="http://creativecommons.org/ns#"
   xmlns:rdf="http://www.w3.org/1999/02/22-rdf-syntax-ns#"
   xmlns:svg="http://www.w3.org/2000/svg"
   xmlns="http://www.w3.org/2000/svg"
   xmlns:sodipodi="http://sodipodi.sourceforge.net/DTD/sodipodi-0.dtd"
   xmlns:inkscape="http://www.inkscape.org/namespaces/inkscape"
   width="512"
   height="512"
   viewBox="0 0 512.00001 512.00001"
   id="svg2"
   version="1.1"
   inkscape:version="0.91 r13725"
   sodipodi:docname="waypoint.svg">
  <defs
     id="defs4" />
  <sodipodi:namedview
     id="base"
     pagecolor="#ffffff"
     bordercolor="#666666"
     borderopacity="1.0"
     inkscape:pageopacity="0.0"
     inkscape:pageshadow="2"
     inkscape:zoom="0.98994949"
     inkscape:cx="356.46373"
     inkscape:cy="263.61818"
     inkscape:document-units="px"
     inkscape:current-layer="layer3"
     showgrid="false"
     inkscape:window-width="1362"
     inkscape:window-height="726"
     inkscape:window-x="0"
     inkscape:window-y="18"
     inkscape:window-maximized="0"
     units="px" />
  <metadata
     id="metadata7">
    <rdf:RDF>
      <cc:Work
         rdf:about="">
        <dc:format>image/svg+xml</dc:format>
        <dc:type
           rdf:resource="http://purl.org/dc/dcmitype/StillImage" />
        <dc:title></dc:title>
      </cc:Work>
    </rdf:RDF>
  </metadata>
  <g
     inkscape:label="Layer 1"
     inkscape:groupmode="layer"
     id="layer1"
     style="display:inline"
     transform="translate(0,-540.36216)" />
  <g
     inkscape:groupmode="layer"
     id="layer3"
     inkscape:label="Layer 3"
     style="display:inline"
     transform="translate(0,-540.36216)">
    <path
       id="path3336-2"
       style="display:inline;fill:#5daf58;fill-opacity:1;fill-rule:evenodd;stroke:none;stroke-width:0.93931514px;stroke-linecap:butt;stroke-linejoin:miter;stroke-opacity:1"
       d="m 321.74127,796.3618 a 65.741515,65.741515 0 0 1 -65.7415,65.74151 65.741515,65.741515 0 0 1 -65.74152,-65.74151 65.741515,65.741515 0 0 1 65.74152,-65.74153 65.741515,65.741515 0 0 1 65.7415,65.74153 z m -65.7428,-255.99811 a 255.99936,255.99936 0 0 0 -3.46651,0.1217 255.99936,255.99936 0 0 1 13.3365,0.37132 255.99936,255.99936 0 0 0 -9.86999,-0.49305 z m -9.43171,0.33174 a 255.99936,255.99936 0 0 0 -15.2417,1.10477 255.99936,255.99936 0 0 1 15.2417,-1.10477 z m 33.09774,0.85216 a 255.99936,255.99936 0 0 1 4.56521,0.49914 255.99936,255.99936 0 0 0 -4.56521,-0.49914 z m -54.82507,1.03783 a 255.99936,255.99936 0 0 0 -64.68287,16.55344 l 5.81607,14.39563 a 240.46408,240.46408 0 0 1 60.75679,-15.54606 l -1.88999,-15.40301 z m 66.74634,0.57218 -2.16085,15.36649 a 240.46408,240.46408 0 0 1 60.52855,16.50779 l 6.06867,-14.30129 A 255.99936,255.99936 0 0 0 291.58577,543.1576 Z m 76.27852,23.29472 a 255.99936,255.99936 0 0 1 11.01432,5.33825 255.99936,255.99936 0 0 0 -11.01432,-5.33825 z m -225.089,0.46567 a 255.99936,255.99936 0 0 0 -11.17867,6.04736 255.99936,255.99936 0 0 1 11.17867,-6.04736 z m 247.21503,11.68386 a 255.99936,255.99936 0 0 1 10.70692,6.58608 255.99936,255.99936 0 0 0 -10.70692,-6.58608 z m -269.51758,0.74261 a 255.99936,255.99936 0 0 0 -10.60042,7.18564 255.99936,255.99936 0 0 1 10.60042,-7.18564 z m -18.3917,12.75823 a 255.99936,255.99936 0 0 0 -47.57857,46.83293 l 12.22867,9.55345 a 240.46408,240.46408 0 0 1 44.69031,-43.99033 l -9.34041,-12.39605 z m 311.344,2.76348 -9.55345,12.22866 a 240.46408,240.46408 0 0 1 43.99032,44.69033 l 12.39606,-9.34042 a 255.99936,255.99936 0 0 0 -46.83293,-47.57857 z m 52.42073,55.39116 a 255.99936,255.99936 0 0 1 7.16434,10.56693 255.99936,255.99936 0 0 0 -7.16434,-10.56693 z m -421.01849,1.40608 a 255.99936,255.99936 0 0 0 -7.05781,11.47997 255.99936,255.99936 0 0 1 7.05781,-11.47997 z m 434.53455,20.23604 a 255.99936,255.99936 0 0 1 6.10216,11.27909 255.99936,255.99936 0 0 0 -6.10216,-11.27909 z m -447.91974,1.5613 a 255.99936,255.99936 0 0 0 -5.9865,12.34736 255.99936,255.99936 0 0 1 5.9865,-12.34736 z M 20.3669,696.34156 a 255.99936,255.99936 0 0 0 -17.57299,64.4333 l 15.36648,2.16088 A 240.46408,240.46408 0 0 1 34.66816,702.41328 L 20.3669,696.34156 Z m 472.85489,4.17564 -14.39562,5.81606 a 240.46408,240.46408 0 0 1 15.54605,60.75985 l 15.40301,-1.88999 A 255.99936,255.99936 0 0 0 493.22179,700.51719 Z M 1.69217,768.06703 a 255.99936,255.99936 0 0 0 -0.51131,4.68086 255.99936,255.99936 0 0 1 0.51131,-4.68086 z m 508.87436,3.66435 a 255.99936,255.99936 0 0 1 1.09869,15.22039 255.99936,255.99936 0 0 0 -1.09869,-15.22039 z M 0.49913,786.3522 A 255.99936,255.99936 0 0 0 0,796.36218 255.99936,255.99936 0 0 0 0.12482,799.86826 255.99936,255.99936 0 0 1 0.49916,786.3522 Z m 511.3761,6.5039 A 255.99936,255.99936 0 0 1 511.50087,806.31737 255.99936,255.99936 0 0 0 512,796.36218 255.99936,255.99936 0 0 0 511.87518,792.8561 Z M 0.33478,805.77259 a 255.99936,255.99936 0 0 0 1.09869,15.22039 255.99936,255.99936 0 0 1 -1.09869,-15.22039 z m 510.47826,14.25257 a 255.99936,255.99936 0 0 1 -0.49607,4.56216 255.99936,255.99936 0 0 0 0.49607,-4.56216 z m -493.18526,5.60608 -15.40301,1.88998 a 255.99936,255.99936 0 0 0 16.55344,64.68593 l 14.39562,-5.81607 A 240.46408,240.46408 0 0 1 17.62778,825.63124 Z m 476.21184,4.15737 a 240.46408,240.46408 0 0 1 -16.50778,60.52245 l 14.30126,6.07173 a 255.99936,255.99936 0 0 0 17.56995,-64.43637 l -15.36343,-2.15781 z m -7.48998,77.53243 a 255.99936,255.99936 0 0 1 -5.78563,11.9304 255.99936,255.99936 0 0 0 5.78563,-11.9304 z m -459.81362,2.22477 a 255.99936,255.99936 0 0 0 6.10215,11.2791 255.99936,255.99936 0 0 1 -6.10215,-11.2791 z m 447.39017,20.5343 a 255.99936,255.99936 0 0 1 -6.75346,10.9778 255.99936,255.99936 0 0 0 6.75346,-10.9778 z m -434.9363,1.81998 a 255.99936,255.99936 0 0 0 7.18564,10.59738 255.99936,255.99936 0 0 1 -7.18564,-10.59738 z m 25.1482,9.04216 -12.39604,9.34041 a 255.99936,255.99936 0 0 0 46.83291,47.5725 l 9.55042,-12.22564 A 240.46408,240.46408 0 0 1 64.13809,940.94224 Z m 381.12773,3.29304 a 240.46408,240.46408 0 0 1 -44.68727,43.99032 l 9.34041,12.39609 a 255.99936,255.99936 0 0 0 47.57553,-46.83296 l -12.22867,-9.55345 z m -43.13814,61.95901 a 255.99936,255.99936 0 0 1 -10.60042,7.1856 255.99936,255.99936 0 0 0 10.60042,-7.1856 z m -290.80362,1.3543 a 255.99936,255.99936 0 0 0 9.86389,6.0656 255.99936,255.99936 0 0 1 -9.86389,-6.0656 z m 50.72249,10.1439 -6.06869,14.3013 a 255.99936,255.99936 0 0 0 64.43637,17.5729 l 2.16086,-15.3664 a 240.46408,240.46408 0 0 1 -60.52854,-16.5078 z m 183.98082,1.4974 a 240.46408,240.46408 0 0 1 -60.75983,15.546 l 1.88999,15.4 a 255.99936,255.99936 0 0 0 64.68593,-16.5504 l -5.81609,-14.3956 z m 34.41253,0.5478 a 255.99936,255.99936 0 0 1 -11.24257,6.0809 255.99936,255.99936 0 0 0 11.24257,-6.0809 z m -247.31849,1.1961 a 255.99936,255.99936 0 0 0 11.0417,5.3504 255.99936,255.99936 0 0 1 -11.0417,-5.3504 z m 94.65497,29.7469 a 255.99936,255.99936 0 0 0 4.55912,0.4961 255.99936,255.99936 0 0 1 -4.55912,-0.4961 z m 52.85291,0.2465 a 255.99936,255.99936 0 0 1 -15.22039,1.0987 255.99936,255.99936 0 0 0 15.22039,-1.0987 z m -34.55557,0.9374 a 255.99936,255.99936 0 0 0 9.92475,0.4961 255.99936,255.99936 0 0 0 3.50304,-0.1249 255.99936,255.99936 0 0 1 -13.42779,-0.3713 z"
       inkscape:connector-curvature="0"
       inkscape:export-filename="/home/nikulaj/Documents/haxor/AndroidGame/android/assets/img/waypoint.png"
       inkscape:export-xdpi="90"
       inkscape:export-ydpi="90" />
  </g>
  <g
     inkscape:groupmode="layer"
     id="layer2"
     inkscape:label="Layer 2"
     style="display:inline"
     transform="translate(0,-540.36216)" />
</svg>
